<?xml version="1.0" standalone="no"?><!DOCTYPE svg PUBLIC "-//W3C//DTD SVG 1.1//EN" "http://www.w3.org/Graphics/SVG/1.1/DTD/svg11.dtd"><svg t="1743648921232" class="icon" viewBox="0 0 1024 1024" version="1.1" xmlns="http://www.w3.org/2000/svg" p-id="8826" xmlns:xlink="http://www.w3.org/1999/xlink" width="200" height="200"><path d="M346.6 436.7c-42.7 0-85.9-30-104.7-55.2C219.7 352 206 312.2 206 277.8c0-90.2 73.3-163.5 163.5-163.5 48.3 0 82.1 19.3 101.9 35.5 22.5 18.3 38.5 42.7 40.9 62 0.1 0.9-0.4 1.8-1.3 2.1-0.2 0.1-0.5 0.1-0.7 0.1-0.7 0-1.3-0.3-1.7-0.9-23-35.8-61.2-59.6-104.6-65.3-6.6-0.9-13.3-1.3-19.9-1.3-71.3 0-131.8 50.8-140.6 118.1-2.5 31.5 2.8 76.5 41.9 116.3 26.8 27.3 71 39.4 101.9 42.4 4.1 0.4 8.4-0.1 12.6-0.4h0.1c0.9 0 1.8 0.7 2 1.6 0.2 1-0.3 2-1.3 2.3-18.7 6.5-36.9 9.9-54.1 9.9z" fill="" p-id="8827"></path><path d="M583.5 360.8C452 360.8 349 322.4 349 273.3c0-15.8 11.7-33 32.1-47.3 19.5-13.7 43.1-21.8 63.3-21.8 1.8 0 3.6 0.1 5.3 0.2 1 0.1 1.7 0.8 1.8 1.8s-0.5 1.9-1.5 2.1c-40.5 11.3-68.8 35.4-68.8 58.6 0 19.8 20.1 38.3 56.5 52 37 13.9 87.5 21.5 142.3 21.5 55.1 0 106.7-7.6 145.1-21.5 38.2-13.8 59.3-32.2 59.3-51.9 0-24.6-13.1-48.4-108.5-56-1.1-0.1-1.9-1-1.8-2 0-1.1 0.9-1.9 1.9-2 5.6-0.2 11.2-0.3 16.5-0.3 42.1 0 74.5 6.6 96.2 19.6 19.2 11.5 29.3 27.8 29.3 47.1 0 49-103 87.4-234.5 87.4zM521.9 540.7c-0.2 0-0.4 0-0.6-0.1-0.9-0.3-1.5-1.1-1.4-2 0.3-10.7-12.9-20.2-28.1-31.1-4.2-3-8.5-6.1-12.8-9.4-23.1-17.7-76.3-80.4-100.8-151.5-0.4-1.1-0.8-2.1-1.1-3.1-0.3-1 0.3-2.1 1.3-2.5 0.2-0.1 0.4-0.1 0.6-0.1 0.8 0 1.6 0.5 1.9 1.4 0.3 1 0.7 2 1 2.9 10.7 27.4 65.3 72 94.7 95.9 10.4 8.5 17.3 14.1 19.3 16.5 6.4 7.6 4.9 13.9 3.9 18.5-1.1 4.7-1.6 7 5.1 9.8 8.5 3.6 16.2 13.2 20 25.1 3.6 11 3.1 21.5-1.3 28.7-0.3 0.7-1 1-1.7 1zM665.1 838.4c-40.6 0-73.5-53.9-80.8-113.8-4.8-39.6 11.5-98.1 49.3-160.8 21.1-35 45.7-64.8 68.3-92.8 36.4-45 61.2-90.9 74.1-128.8 0.3-0.8 1-1.3 1.8-1.3 0.1 0 0.3 0 0.4 0.1 0.9 0.2 1.6 1.1 1.4 2.1-8.4 59.8-40.7 107.2-74.4 152.8-18 24.4-42.3 63.3-53.1 86.8-19.5 42.4-29.9 91-28.6 133.3 1.6 51.9 20.5 92.3 54.7 117 0.6 0.4 0.9 1.1 0.8 1.8-0.1 0.7-0.6 1.3-1.3 1.5-4.1 1.4-8.3 2.1-12.6 2.1z" fill="" p-id="8828"></path><path d="M600.4 909.7c-44.5 0-85.8-6.8-116.3-19.1-30.2-12.2-46.8-28.4-46.8-45.7 0-31.8 47.5-56.5 88.3-56.5 3.5 0 7 0.2 10.3 0.6 1 0.1 1.7 0.9 1.8 1.8s-0.5 1.8-1.5 2.1c-34.1 9.3-54.5 23.6-54.5 38.3 0 12.7 15.4 26.6 41.2 37.2 28 11.5 64.1 17.8 101.7 17.8 35.4 0 70.1-5.7 97.5-16.1 25.6-9.7 41.9-22.4 44.9-34.8 0.2-0.9 1-1.5 1.9-1.5 0.9 0 1.7 0.7 1.9 1.6 0.4 1.8 0.6 3.5 0.6 5.3 0 17.1-18.5 34.6-50.7 48-33.3 13.4-76 21-120.3 21z" fill="" p-id="8829"></path><path d="M467.8 371c31.5 3.9 81.4 15.7 117.7 15.8 42 0 96-10.4 114.8-15.8s22.1 11.1 9.9 37.6-66.3 77.1-80.6 96c-16.7 22.1-51.7 25.7-70.6-8.8-11.7-21.3-23.4-19-38.6-29.8-8.3-5.9-4.8-20.3-15.5-32.6-11.6-13.5-80.4-59.4-37.1-62.4z" fill="#C5F1FC" p-id="8830"></path></svg>